<?xml version="1.0" encoding="UTF-8" standalone="no"?>
<svg
   xmlns:dc="http://purl.org/dc/elements/1.1/"
   xmlns:cc="http://creativecommons.org/ns#"
   xmlns:rdf="http://www.w3.org/1999/02/22-rdf-syntax-ns#"
   xmlns:svg="http://www.w3.org/2000/svg"
   xmlns="http://www.w3.org/2000/svg"
   xmlns:sodipodi="http://sodipodi.sourceforge.net/DTD/sodipodi-0.dtd"
   xmlns:inkscape="http://www.inkscape.org/namespaces/inkscape"
   width="16.310833mm"
   height="11.101739mm"
   viewBox="0 0 16.310833 11.101739"
   version="1.1"
   id="svg8"
   sodipodi:docname="font-size-selfdesign.svg"
   inkscape:version="1.0.2-2 (e86c870879, 2021-01-15)"
   fill="#fff">
  <g transform="translate(-54.306559,-80.906169)">
     <path
           d="m 244.02344,316.80078 c -0.87822,0 -1.79802,0.38784 -2.41406,1.00391 l -0.0215,0.0293 -0.0234,0.0234 c -0.57788,0.62603 -0.92187,1.51464 -0.92187,2.36133 0,0.84672 0.34401,1.74312 0.92187,2.36914 l 0.0449,0.0527 0.0508,0.043 c 0.62603,0.57789 1.51659,0.91602 2.36328,0.91602 h 6.23047 v 20.64648 c 0,0.88271 0.35939,1.7996 0.95898,2.44532 l 0.0449,0.043 0.043,0.0449 c 0.6457,0.59954 1.56845,0.9668 2.45117,0.96679 0.88271,1e-5 1.79765,-0.3672 2.44336,-0.96679 l 0.0234,-0.0215 0.0215,-0.0234 c 0.63662,-0.63661 1.04883,-1.57577 1.04883,-2.48829 v -20.64648 h 6.18555 c 0.84672,0 1.74312,-0.33815 2.36914,-0.91602 l 0.0215,-0.0215 0.0234,-0.0293 c 0.61602,-0.61605 1.01172,-1.53583 1.01172,-2.41406 0,-0.87821 -0.39564,-1.79799 -1.01172,-2.41406 -0.61605,-0.61603 -1.53583,-1.00391 -2.41406,-1.00391 z M 209.3061,305.78741 c -1.06569,0 -2.14958,0.45914 -2.90108,1.21062 l -0.0223,0.0223 -0.0223,0.0223 c -0.70284,0.76144 -1.10728,1.81519 -1.10728,2.84941 0,1.03421 0.40442,2.08797 1.10728,2.84941 l 0.0443,0.0517 0.0517,0.0443 c 0.76143,0.70285 1.81519,1.10729 2.8494,1.10729 h 9.39715 v 29.57923 c 0,1.08061 0.43133,2.17597 1.16634,2.96752 l 0.0443,0.0443 0.0443,0.0443 c 0.79156,0.73502 1.87953,1.16634 2.96014,1.16634 1.08061,0 2.16858,-0.43133 2.96014,-1.16634 l 0.0295,-0.0223 0.0223,-0.0223 c 0.78247,-0.78245 1.2623,-1.90138 1.2623,-3.01181 V 313.9444 h 9.34547 c 1.03421,0 2.08797,-0.40442 2.84941,-1.10728 l 0.0223,-0.0223 0.0223,-0.0223 c 0.75151,-0.7515 1.21063,-1.83539 1.21063,-2.90108 0,-1.06571 -0.45914,-2.14221 -1.21063,-2.89371 -0.7515,-0.75149 -1.82801,-1.21063 -2.8937,-1.21063 z"
           transform="scale(0.26458333)"
           sodipodi:nodetypes="scccscccscscccscccscscccsssscsccscccscscccsccsscsccssscc" />
  </g>
</svg>
